<svg width="16" height="16" viewBox="0 0 16 16" fill="none" xmlns="http://www.w3.org/2000/svg">
<path d="M14.0005 13V11C14.0002 10.7349 13.8947 10.4807 13.7073 10.2932C13.5198 10.1058 13.2656 10.0003 13.0005 10H11.0005C10.7354 10.0003 10.4812 10.1058 10.2937 10.2932C10.1062 10.4807 10.0008 10.7349 10.0005 11V14C10.0015 14.2649 10.1072 14.5187 10.2945 14.706C10.4818 14.8933 10.7356 14.999 11.0005 15H13.5005V14H11.0005V13H14.0005ZM11.0005 11H13.0005V12H11.0005V11Z" fill="#161616"/>
<path d="M12.854 4.6465L9.35399 1.1465C9.26024 1.05273 9.13309 1.00003 9.00049 1H4.00049C3.73535 1.00026 3.48115 1.10571 3.29367 1.29319C3.10619 1.48066 3.00075 1.73486 3.00049 2V14C3.00079 14.2651 3.10625 14.5193 3.29372 14.7068C3.48119 14.8942 3.73537 14.9997 4.00049 15H8.00049V14H4.00049V2H8.00049V5C8.00075 5.26514 8.10619 5.51934 8.29367 5.70681C8.48115 5.89429 8.73535 5.99974 9.00049 6H12.0005V8H13.0005V5C13.0005 4.8674 12.9478 4.74025 12.854 4.6465ZM9.00049 2.20705L11.7934 5H9.00049V2.20705Z" fill="#161616"/>
</svg>
