<svg width="16" height="16" viewBox="0 0 16 16" fill="none" xmlns="http://www.w3.org/2000/svg">
<path d="M14.6667 4.83301H10.6667C10.3934 4.83301 10.1667 4.60634 10.1667 4.33301C10.1667 4.05967 10.3934 3.83301 10.6667 3.83301H14.6667C14.9401 3.83301 15.1667 4.05967 15.1667 4.33301C15.1667 4.60634 14.9401 4.83301 14.6667 4.83301Z" fill="#161616"/>
<path d="M3.99992 4.83301H1.33325C1.05992 4.83301 0.833252 4.60634 0.833252 4.33301C0.833252 4.05967 1.05992 3.83301 1.33325 3.83301H3.99992C4.27325 3.83301 4.49992 4.05967 4.49992 4.33301C4.49992 4.60634 4.27325 4.83301 3.99992 4.83301Z" fill="#161616"/>
<path d="M6.66659 7.16667C5.10659 7.16667 3.83325 5.89333 3.83325 4.33333C3.83325 2.77333 5.10659 1.5 6.66659 1.5C8.22659 1.5 9.49992 2.77333 9.49992 4.33333C9.49992 5.89333 8.22659 7.16667 6.66659 7.16667ZM6.66659 2.5C5.65325 2.5 4.83325 3.32 4.83325 4.33333C4.83325 5.34667 5.65325 6.16667 6.66659 6.16667C7.67992 6.16667 8.49992 5.34667 8.49992 4.33333C8.49992 3.32 7.67992 2.5 6.66659 2.5Z" fill="#161616"/>
<path d="M14.6667 12.167H12C11.7267 12.167 11.5 11.9403 11.5 11.667C11.5 11.3937 11.7267 11.167 12 11.167H14.6667C14.94 11.167 15.1667 11.3937 15.1667 11.667C15.1667 11.9403 14.94 12.167 14.6667 12.167Z" fill="#161616"/>
<path d="M5.33325 12.167H1.33325C1.05992 12.167 0.833252 11.9403 0.833252 11.667C0.833252 11.3937 1.05992 11.167 1.33325 11.167H5.33325C5.60659 11.167 5.83325 11.3937 5.83325 11.667C5.83325 11.9403 5.60659 12.167 5.33325 12.167Z" fill="#161616"/>
<path d="M9.33333 14.4997C7.77333 14.4997 6.5 13.2263 6.5 11.6663C6.5 10.1063 7.77333 8.83301 9.33333 8.83301C10.8933 8.83301 12.1667 10.1063 12.1667 11.6663C12.1667 13.2263 10.8933 14.4997 9.33333 14.4997ZM9.33333 9.83301C8.32 9.83301 7.5 10.653 7.5 11.6663C7.5 12.6797 8.32 13.4997 9.33333 13.4997C10.3467 13.4997 11.1667 12.6797 11.1667 11.6663C11.1667 10.653 10.3467 9.83301 9.33333 9.83301Z" fill="#161616"/>
</svg>
